<svg xmlns="http://www.w3.org/2000/svg" width="195.72" height="35" viewBox="0 0 195.72 35"><rect class="svg__rect" x="0" y="0" width="130.94" height="35" fill="#31C4F3"/><rect class="svg__rect" x="128.94" y="0" width="66.78" height="35" fill="#389AD5"/><path class="svg__text" d="M16.25 14.66L13.61 14.66L13.61 13.47L20.38 13.47L20.38 14.66L17.72 14.66L17.72 22L16.25 22L16.25 14.66ZM29.72 22L24.14 22L24.14 13.47L29.67 13.47L29.67 14.66L25.62 14.66L25.62 17.02L29.12 17.02L29.12 18.19L25.62 18.19L25.62 20.82L29.72 20.82L29.72 22ZM33.48 19.42L33.48 19.42L34.96 19.42Q34.96 20.15 35.44 20.55Q35.92 20.95 36.82 20.95L36.82 20.95Q37.59 20.95 37.98 20.63Q38.37 20.32 38.37 19.80L38.37 19.80Q38.37 19.24 37.97 18.94Q37.58 18.63 36.55 18.32Q35.52 18.01 34.91 17.63L34.91 17.63Q33.74 16.90 33.74 15.72L33.74 15.72Q33.74 14.69 34.58 14.02Q35.42 13.35 36.76 13.35L36.76 13.35Q37.65 13.35 38.35 13.68Q39.05 14.01 39.45 14.61Q39.85 15.22 39.85 15.96L39.85 15.96L38.37 15.96Q38.37 15.29 37.95 14.91Q37.53 14.54 36.75 14.54L36.75 14.54Q36.03 14.54 35.62 14.85Q35.22 15.16 35.22 15.71L35.22 15.71Q35.22 16.18 35.66 16.50Q36.09 16.81 37.09 17.10Q38.08 17.40 38.69 17.78Q39.29 18.16 39.57 18.65Q39.85 19.13 39.85 19.79L39.85 19.79Q39.85 20.86 39.03 21.49Q38.22 22.12 36.82 22.12L36.82 22.12Q35.89 22.12 35.11 21.77Q34.34 21.43 33.91 20.83Q33.48 20.22 33.48 19.42ZM45.82 14.66L43.19 14.66L43.19 13.47L49.95 13.47L49.95 14.66L47.29 14.66L47.29 22L45.82 22L45.82 14.66ZM59.29 22L53.71 22L53.71 13.47L59.25 13.47L59.25 14.66L55.19 14.66L55.19 17.02L58.70 17.02L58.70 18.19L55.19 18.19L55.19 20.82L59.29 20.82L59.29 22ZM65.94 22L63.48 22L63.48 13.47L66.00 13.47Q67.13 13.47 68.01 13.97Q68.89 14.48 69.37 15.40Q69.85 16.33 69.85 17.52L69.85 17.52L69.85 17.95Q69.85 19.16 69.36 20.08Q68.88 21.00 67.99 21.50Q67.09 22 65.94 22L65.94 22ZM64.97 14.66L64.97 20.82L65.93 20.82Q67.10 20.82 67.72 20.09Q68.35 19.36 68.36 17.99L68.36 17.99L68.36 17.52Q68.36 16.13 67.75 15.40Q67.15 14.66 66.00 14.66L66.00 14.66L64.97 14.66ZM81.67 22L79.70 13.47L81.17 13.47L82.50 19.88L84.13 13.47L85.37 13.47L86.98 19.89L88.29 13.47L89.76 13.47L87.79 22L86.38 22L84.75 15.77L83.09 22L81.67 22ZM95.40 22L93.92 22L93.92 13.47L95.40 13.47L95.40 22ZM101.89 14.66L99.25 14.66L99.25 13.47L106.02 13.47L106.02 14.66L103.36 14.66L103.36 22L101.89 22L101.89 14.66ZM111.26 22L109.78 22L109.78 13.47L111.26 13.47L111.26 17.02L115.07 17.02L115.07 13.47L116.55 13.47L116.55 22L115.07 22L115.07 18.21L111.26 18.21L111.26 22Z" fill="#FFFFFF"/><path class="svg__text" d="M142.05 20.93L142.05 20.93L143.34 19.40Q144.01 20.27 144.79 20.27L144.79 20.27Q144.79 20.27 144.80 20.27L144.80 20.27Q145.31 20.27 145.58 19.96Q145.85 19.65 145.85 19.05L145.85 19.05L145.85 15.44L142.95 15.44L142.95 13.60L148.21 13.60L148.21 18.91Q148.21 20.54 147.38 21.36Q146.56 22.17 144.97 22.17L144.97 22.17Q144.04 22.17 143.29 21.85Q142.53 21.53 142.05 20.93ZM160.04 22L153.29 22L153.29 13.60L159.89 13.60L159.89 15.44L155.65 15.44L155.65 16.85L159.38 16.85L159.38 18.63L155.65 18.63L155.65 20.17L160.04 20.17L160.04 22ZM164.26 21.24L164.26 21.24L165.04 19.49Q165.60 19.86 166.34 20.09Q167.09 20.32 167.81 20.32L167.81 20.32Q169.17 20.32 169.18 19.64L169.18 19.64Q169.18 19.28 168.79 19.11Q168.40 18.93 167.53 18.74L167.53 18.74Q166.58 18.53 165.95 18.30Q165.31 18.06 164.86 17.55Q164.40 17.03 164.40 16.16L164.40 16.16Q164.40 15.39 164.82 14.77Q165.24 14.15 166.08 13.79Q166.91 13.43 168.12 13.43L168.12 13.43Q168.94 13.43 169.75 13.62Q170.56 13.80 171.17 14.17L171.17 14.17L170.44 15.93Q169.24 15.28 168.11 15.28L168.11 15.28Q167.40 15.28 167.08 15.49Q166.75 15.70 166.75 16.04L166.75 16.04Q166.75 16.37 167.14 16.54Q167.52 16.71 168.37 16.89L168.37 16.89Q169.33 17.10 169.96 17.33Q170.59 17.56 171.05 18.07Q171.52 18.58 171.52 19.46L171.52 19.46Q171.52 20.21 171.10 20.83Q170.68 21.44 169.84 21.80Q169.00 22.17 167.80 22.17L167.80 22.17Q166.78 22.17 165.82 21.92Q164.85 21.67 164.26 21.24ZM177.89 15.48L175.30 15.48L175.30 13.60L182.83 13.60L182.83 15.48L180.26 15.48L180.26 22L177.89 22L177.89 15.48Z" fill="#FFFFFF" x="141.94"/></svg>